<svg width="84" height="20" viewBox="0 0 84 20" fill="none" xmlns="http://www.w3.org/2000/svg">
<g clip-path="url(#clip0_48587_1169)">
<path d="M18.3285 18.3327L18.3327 18.332V12.2195C18.3327 9.22921 17.6889 6.92574 14.1931 6.92574C12.5125 6.92574 11.3848 7.84796 10.9243 8.72227H10.8757V7.2049H7.56115V18.332H11.0125V12.8223C11.0125 11.3716 11.2875 9.9688 13.0841 9.9688C14.8542 9.9688 14.8806 11.6244 14.8806 12.9153V18.3327H18.3285Z" fill="white"/>
<path d="M1.94101 7.2056H5.39657V18.3327H1.94101V7.2056Z" fill="white"/>
<path d="M3.6674 1.66602C2.56254 1.66602 1.66602 2.56254 1.66602 3.6674C1.66602 4.77227 2.56254 5.68754 3.6674 5.68754C4.77227 5.68754 5.66879 4.77227 5.66879 3.6674C5.6681 2.56254 4.77157 1.66602 3.6674 1.66602Z" fill="white"/>
<path d="M50.75 4.80963C50.1059 5.08291 49.4148 5.26824 48.6887 5.35098C49.4301 4.92586 49.9976 4.25154 50.2666 3.45051C49.5711 3.84421 48.8035 4.13008 47.9855 4.28505C47.3305 3.61597 46.3988 3.19922 45.3653 3.19922C43.3827 3.19922 41.7752 4.73844 41.7752 6.63576C41.7752 6.90485 41.8069 7.16767 41.8682 7.41899C38.885 7.27552 36.2397 5.90699 34.4693 3.82745C34.1598 4.33426 33.9837 4.92479 33.9837 5.55516C33.9837 6.7478 34.618 7.80012 35.5803 8.41579C34.992 8.39695 34.4387 8.24198 33.9542 7.98439V8.02732C33.9542 9.69219 35.1921 11.0817 36.8335 11.3979C36.5328 11.4754 36.2157 11.5183 35.8876 11.5183C35.6558 11.5183 35.4316 11.4963 35.2118 11.4544C35.6689 12.8209 36.9943 13.8146 38.5646 13.8418C37.3366 14.7633 35.7881 15.3109 34.1062 15.3109C33.8165 15.3109 33.531 15.2941 33.25 15.2638C34.8389 16.2407 36.7253 16.8103 38.7527 16.8103C45.3566 16.8103 48.9665 11.5728 48.9665 7.03053L48.9544 6.58552C49.6597 6.10382 50.2699 5.49862 50.75 4.80963Z" fill="white"/>
<path d="M78.6354 0.837799L76.321 0.833984C73.7209 0.833984 72.0405 2.60489 72.0405 5.34584V7.42611H69.7135C69.5124 7.42611 69.3496 7.59357 69.3496 7.80013V10.8142C69.3496 11.0208 69.5126 11.188 69.7135 11.188H72.0405V18.7935C72.0405 19 72.2034 19.1673 72.4044 19.1673H75.4405C75.6416 19.1673 75.8045 18.9999 75.8045 18.7935V11.188H78.5253C78.7264 11.188 78.8892 11.0208 78.8892 10.8142L78.8903 7.80013C78.8903 7.70095 78.8519 7.60597 78.7837 7.53578C78.7156 7.46559 78.6227 7.42611 78.5262 7.42611H75.8045V5.66264C75.8045 4.81505 76.0011 4.38476 77.0759 4.38476L78.635 4.38419C78.8359 4.38419 78.9987 4.21673 78.9987 4.01037V1.21163C78.9987 1.00545 78.8361 0.83818 78.6354 0.837799Z" fill="white"/>
</g>
<defs>
<clipPath id="clip0_48587_1169">
<rect width="84" height="20" fill="white"/>
</clipPath>
</defs>
</svg>
